<svg width="36" height="35" viewBox="0 0 36 35" fill="none" xmlns="http://www.w3.org/2000/svg">
<path d="M11.3759 22.6488L7.83594 8.8822L15.7324 16.7786C15.7763 16.8226 15.823 16.8619 15.872 16.8968C15.7629 17.5676 15.9669 18.2794 16.4842 18.7966C17.3384 19.6509 18.7235 19.6509 19.5777 18.7966C20.432 17.9423 20.432 16.5573 19.5777 15.703C18.949 15.0743 18.0329 14.9083 17.2523 15.205L9.0477 7.00037C9.22265 6.97866 9.40664 6.9888 9.59356 7.03686L23.4299 10.5948C24.5379 10.8797 25.377 11.7861 25.5758 12.9127L26.4837 18.0576C26.43 18.0947 26.3789 18.1372 26.331 18.185L18.8172 25.6988L13.6938 24.7947C12.5672 24.5959 11.6608 23.7567 11.3759 22.6488Z" fill="white" fill-opacity="0.8"/>
<path d="M20.9375 26.6721L21.7665 28.3301C22.2116 29.2204 23.3982 29.4129 24.102 28.7091L29.4902 23.3209C30.1941 22.6171 30.0015 21.4305 29.1112 20.9853L27.4533 20.1564L20.9375 26.6721Z" fill="white" fill-opacity="0.8"/>
</svg>
