<svg width="36" height="35" viewBox="0 0 36 35" fill="none" xmlns="http://www.w3.org/2000/svg">
<path d="M23.1035 17.5004C23.1035 20.3194 20.8183 22.6046 17.9993 22.6046C15.1804 22.6046 12.8952 20.3194 12.8952 17.5004C12.8952 14.6815 15.1804 12.3963 17.9993 12.3963C20.8183 12.3963 23.1035 14.6815 23.1035 17.5004Z" fill="white" fill-opacity="0.8"/>
<path fill-rule="evenodd" clip-rule="evenodd" d="M8.37715 9.58406C7.57174 8.18904 8.0497 6.40524 9.44472 5.59982L11.9706 4.14149C13.3657 3.33608 15.1495 3.81404 15.9549 5.20906C16.8635 6.7829 19.1352 6.78291 20.0438 5.20908C20.8492 3.81406 22.6331 3.33609 24.0281 4.1415L26.554 5.59983C27.949 6.40525 28.427 8.18906 27.6216 9.58408C26.7129 11.1579 27.8487 13.1252 29.666 13.1252C31.2768 13.1252 32.5827 14.431 32.5827 16.0419V18.9585C32.5827 20.5694 31.2768 21.8752 29.666 21.8752C27.8487 21.8752 26.7129 23.8425 27.6215 25.4163C28.427 26.8113 27.949 28.5951 26.554 29.4006L24.0281 30.8589C22.633 31.6643 20.8492 31.1863 20.0438 29.7913C19.1352 28.2175 16.8635 28.2175 15.9549 29.7913C15.1495 31.1864 13.3657 31.6643 11.9706 30.8589L9.44474 29.4006C8.04972 28.5952 7.57175 26.8114 8.37716 25.4163C9.28582 23.8425 8.14999 21.8752 6.33268 21.8752C4.72185 21.8752 3.41602 20.5694 3.41602 18.9585V16.0419C3.41602 14.431 4.72185 13.1252 6.33268 13.1252C8.14999 13.1252 9.28581 11.1579 8.37715 9.58406ZM25.291 17.5004C25.291 21.5275 22.0264 24.7921 17.9993 24.7921C13.9723 24.7921 10.7077 21.5275 10.7077 17.5004C10.7077 13.4734 13.9723 10.2088 17.9993 10.2088C22.0264 10.2088 25.291 13.4734 25.291 17.5004Z" fill="white" fill-opacity="0.8"/>
</svg>
