<svg width="36" height="35" viewBox="0 0 36 35" fill="none" xmlns="http://www.w3.org/2000/svg">
<path d="M16.5417 25.5208C21.7769 25.5208 26.0208 21.2769 26.0208 16.0417C26.0208 10.8065 21.7769 6.5625 16.5417 6.5625C12.614 6.5625 9.24425 8.95128 7.80602 12.3553C7.61546 12.8063 7.18792 13.125 6.69831 13.125C5.96089 13.125 5.4211 12.427 5.69302 11.7416C7.4049 7.42635 11.6169 4.375 16.5417 4.375C22.985 4.375 28.2083 9.59835 28.2083 16.0417C28.2083 19.0623 27.0604 21.8148 25.177 23.8867C25.2157 23.9131 25.2532 23.9422 25.2891 23.9742L31.8516 29.8075C32.3031 30.2088 32.3438 30.9002 31.9425 31.3516C31.5412 31.8031 30.8498 31.8438 30.3984 31.4425L23.8359 25.6091C23.7419 25.5257 23.6658 25.4297 23.6077 25.3259C21.6467 26.8207 19.1978 27.7083 16.5417 27.7083C14.934 27.7083 13.4022 27.3831 12.0086 26.795C10.7959 26.2831 11.2865 24.7917 12.6029 24.7917C12.792 24.7917 12.9788 24.8305 13.1554 24.8981C14.207 25.3004 15.3486 25.5208 16.5417 25.5208Z" fill="white" fill-opacity="0.8"/>
<path d="M4.875 16.0417L4.87525 15.9649V16.1184L4.875 16.0417Z" fill="white" fill-opacity="0.8"/>
<path d="M6.33333 16.4062C5.72927 16.4062 5.23958 16.8959 5.23958 17.5C5.23958 18.1041 5.72927 18.5938 6.33333 18.5938H12.1667C12.7707 18.5938 13.2604 18.1041 13.2604 17.5C13.2604 16.8959 12.7707 16.4062 12.1667 16.4062H6.33333Z" fill="white" fill-opacity="0.8"/>
<path d="M5.23958 21.875C5.23958 21.2709 5.72927 20.7812 6.33333 20.7812H16.5417C17.1457 20.7812 17.6354 21.2709 17.6354 21.875C17.6354 22.4791 17.1457 22.9688 16.5417 22.9688H6.33333C5.72927 22.9688 5.23958 22.4791 5.23958 21.875Z" fill="white" fill-opacity="0.8"/>
</svg>
