<svg width="110" height="45" viewBox="0 0 110 45" fill="none" xmlns="http://www.w3.org/2000/svg">
<rect x="1.85742" y="1.5" width="106.286" height="42" stroke="#2670DF" stroke-width="3"/>
<path d="M12.8701 8.5625H16.5225L25.8389 31.7461L35.1357 8.5625H38.8076L27.2451 37H24.3936L12.8701 8.5625ZM11.6787 8.5625H14.9014L15.4287 25.9062V37H11.6787V8.5625ZM36.7568 8.5625H39.9795V37H36.2295V25.9062L36.7568 8.5625ZM50.3701 8.5625V37H46.6006V8.5625H50.3701ZM67.5381 8.5625L55.7217 21.8242L49.0811 28.7188L48.4561 24.6953L53.4561 19.1875L63.0068 8.5625H67.5381ZM63.9053 37L53.3779 23.1328L55.624 20.1445L68.3975 37H63.9053Z" fill="#2670DF"/>
<rect x="70.541" y="33" width="27.0708" height="4" fill="#2670DF"/>
</svg>
