<svg width="92" height="68" viewBox="0 0 92 68" fill="none" xmlns="http://www.w3.org/2000/svg">
<path fill-rule="evenodd" clip-rule="evenodd" d="M76.6544 56.7017C78.3416 40.4859 78.3416 24.1388 76.6544 7.92297C76.0528 2.14049 69.3857 -0.788627 64.7198 2.67969L49.1602 14.2458C44.4189 17.7702 38.6683 19.6734 32.7606 19.6734H18.2415C15.6239 19.6734 13.502 21.7954 13.502 24.413V40.2116C13.502 42.8292 15.6239 44.9512 18.2415 44.9512H20.6086L17.4033 56.9136C17.0461 58.2466 17.6975 59.6437 18.9483 60.2269L32.906 66.7357C33.6678 67.0909 34.5478 67.0909 35.3096 66.7357C36.0715 66.3804 36.6371 65.7063 36.8547 64.8944L41.6424 47.0264C41.6932 46.8366 41.7236 46.6461 41.7349 46.4574C44.3795 47.3708 46.886 48.6883 49.1602 50.3788L64.7198 61.945C69.3856 65.4133 76.0528 62.4842 76.6544 56.7017ZM70.9975 8.51155C72.6439 24.336 72.6439 40.2887 70.9975 56.1131C70.852 57.5108 69.2406 58.2187 68.1128 57.3804L52.5532 45.8143C46.8309 41.5607 39.8906 39.2637 32.7606 39.2637L19.1895 39.2637L19.1895 25.3609H32.7606C39.8906 25.3609 46.8309 23.064 52.5532 18.8104L68.1128 7.24423C69.2406 6.40593 70.852 7.1139 70.9975 8.51155ZM36.2783 45.1772C35.1166 45.0273 33.9417 44.9512 32.7606 44.9512H26.4967L23.5146 56.0808L32.2381 60.1487L36.1487 45.5544C36.1836 45.4239 36.2271 45.2981 36.2783 45.1772Z" fill="url(#paint0_linear_376_3974)"/>
<defs>
<linearGradient id="paint0_linear_376_3974" x1="13.9995" y1="0.999785" x2="77.9995" y2="66.9998" gradientUnits="userSpaceOnUse">
<stop stop-color="#7236DE"/>
<stop offset="1" stop-color="#19D0F0"/>
</linearGradient>
</defs>
</svg>
