<svg width="87" height="71" viewBox="0 0 87 71" fill="none" xmlns="http://www.w3.org/2000/svg">
<path fill-rule="evenodd" clip-rule="evenodd" d="M48.3055 0.458982C49.2968 0.881027 49.9403 1.8543 49.9403 2.93171V28.0085H64.0228C64.9785 28.0085 65.8623 28.5161 66.344 29.3415C66.8256 30.1669 66.8327 31.1861 66.3626 32.0181L64.5994 35.1387C57.9124 46.9732 49.3845 57.668 39.3357 66.8218L36.4851 69.4185C35.6983 70.1352 34.5628 70.3201 33.5893 69.89C32.6158 69.46 31.9878 68.496 31.9878 67.4317V42.5675H17.4395C15.9552 42.5675 14.752 41.3642 14.752 39.88C14.752 39.3992 14.8782 38.948 15.0993 38.5575C21.4016 26.9065 29.4705 16.3017 39.0191 7.12043L45.3901 0.994469C46.1667 0.247707 47.3142 0.036938 48.3055 0.458982ZM22.0425 37.1925H34.6753C36.1595 37.1925 37.3628 38.3957 37.3628 39.88V61.3204C46.0294 53.1305 53.458 43.7196 59.4125 33.3836H47.2528C45.7685 33.3836 44.5653 32.1803 44.5653 30.696V9.24417L42.7445 10.9949C34.6792 18.75 27.7158 27.565 22.0425 37.1925Z" fill="url(#paint0_linear_376_3949)"/>
<defs>
<linearGradient id="paint0_linear_376_3949" x1="15" y1="-0.00012184" x2="70" y2="69.9999" gradientUnits="userSpaceOnUse">
<stop stop-color="#7236DE"/>
<stop offset="1" stop-color="#19D0F0"/>
</linearGradient>
</defs>
</svg>
