<svg width="80" height="68" viewBox="0 0 80 68" fill="none" xmlns="http://www.w3.org/2000/svg">
<path fill-rule="evenodd" clip-rule="evenodd" d="M33.5838 1.46363C34.1819 0.775369 35.1108 0.472887 35.9995 0.676925C47.8786 3.40412 53.8831 16.4214 52.471 28.0677C51.922 32.595 50.566 36.1443 48.5691 38.9681C48.5569 38.9854 48.5447 39.0026 48.5324 39.0198C48.986 38.7968 49.4044 38.5563 49.796 38.3021C51.7444 37.0376 53.1745 35.3686 55.0364 33.1955C55.2615 32.9329 55.4929 32.6629 55.7322 32.3853C56.2701 31.7615 57.0836 31.4471 57.9012 31.547C58.7188 31.6469 59.4327 32.1479 59.8046 32.8828C61.4423 36.1192 62.3639 39.7781 62.3639 43.645C62.3639 56.8251 51.6794 67.5096 38.4993 67.5096C25.3193 67.5096 14.6348 56.8251 14.6348 43.645C14.6348 35.2939 18.9261 27.9466 25.4127 23.6857L25.6351 23.4616C25.7493 23.3465 25.8746 23.2429 26.0092 23.1524C28.8593 21.2346 30.9059 19.6659 32.2837 17.8212C33.5853 16.0785 34.3848 13.9527 34.3848 10.7284C34.3848 8.34099 33.9439 6.06236 33.1415 3.96545C32.8155 3.11382 32.9856 2.15188 33.5838 1.46363ZM39.0629 7.20025C39.2338 8.35227 39.3223 9.53045 39.3223 10.7284C39.3223 14.9036 38.2436 18.0928 36.2396 20.7759C34.3575 23.2956 31.7523 25.2309 28.9688 27.1118L28.7309 27.3516C28.6033 27.4801 28.4621 27.5942 28.3096 27.6918C23.0498 31.0593 19.5723 36.9468 19.5723 43.645C19.5723 54.0982 28.0462 62.5721 38.4993 62.5721C48.9525 62.5721 57.4264 54.0982 57.4264 43.645C57.4264 41.9339 57.1999 40.278 56.7757 38.7043C55.5242 40.0595 54.1428 41.3673 52.4841 42.4438C49.445 44.4162 45.642 45.5422 40.1452 45.5422C39.0186 45.5422 38.0349 44.7796 37.7543 43.6885C37.4736 42.5974 37.9672 41.4548 38.9539 40.9111C41.1884 39.6802 43.0824 38.1753 44.5378 36.1173C45.9901 34.0635 47.1028 31.3214 47.5694 27.4734C48.5794 19.1431 45.1318 10.9207 39.0629 7.20025Z" fill="url(#paint0_linear_376_3996)"/>
<defs>
<linearGradient id="paint0_linear_376_3996" x1="10.4995" y1="0.999755" x2="68.9995" y2="67.9998" gradientUnits="userSpaceOnUse">
<stop stop-color="#7236DE"/>
<stop offset="1" stop-color="#19D0F0"/>
</linearGradient>
</defs>
</svg>
