<svg width="27" height="27" viewBox="0 0 27 27" fill="none" xmlns="http://www.w3.org/2000/svg">
<path d="M18.8123 15.8177C18.5249 15.67 17.0932 14.9687 16.8269 14.8737C16.5605 14.7735 16.3654 14.7261 16.173 15.0214C15.9778 15.3141 15.4241 15.9653 15.2501 16.1631C15.0813 16.3582 14.91 16.3819 14.6226 16.2369C12.914 15.3826 11.7934 14.7129 10.6675 12.7802C10.3695 12.266 10.9654 12.3029 11.5218 11.1929C11.6167 10.9978 11.5692 10.8316 11.4954 10.684C11.4216 10.5363 10.8415 9.10723 10.5989 8.52451C10.3643 7.95762 10.1217 8.03672 9.94502 8.02617C9.77627 8.01562 9.58379 8.01562 9.38867 8.01562C9.19355 8.01562 8.87979 8.08945 8.61348 8.37686C8.34717 8.66953 7.5957 9.37354 7.5957 10.8026C7.5957 12.2317 8.63721 13.616 8.77959 13.8111C8.92725 14.0062 10.8283 16.9383 13.7472 18.2013C15.5929 18.9976 16.3153 19.0661 17.2382 18.929C17.7998 18.8446 18.9573 18.2276 19.1973 17.5447C19.4372 16.8645 19.4372 16.2817 19.366 16.1604C19.2948 16.0313 19.0997 15.9574 18.8123 15.8177Z" fill="white"/>
<path d="M24.3951 8.92266C23.7992 7.50674 22.9449 6.23584 21.8559 5.14424C20.7669 4.05527 19.496 3.19834 18.0775 2.60508C16.6273 1.996 15.0875 1.6875 13.5001 1.6875H13.4474C11.8496 1.69541 10.3018 2.01182 8.84634 2.63408C7.44097 3.23525 6.18062 4.08955 5.1022 5.17852C4.02378 6.26748 3.1774 7.53311 2.59204 8.94375C1.9856 10.4045 1.67974 11.9575 1.68765 13.5554C1.69556 15.3853 2.13326 17.202 2.95327 18.8262V22.834C2.95327 23.5037 3.49644 24.0469 4.16617 24.0469H8.17661C9.80083 24.8669 11.6175 25.3046 13.4474 25.3125H13.5028C15.0822 25.3125 16.6141 25.0066 18.0564 24.4081C19.467 23.8201 20.7353 22.9764 21.8216 21.8979C22.9106 20.8195 23.7675 19.5592 24.3661 18.1538C24.9883 16.6983 25.3047 15.1506 25.3126 13.5527C25.3206 11.947 25.0094 10.3887 24.3951 8.92266ZM20.411 20.4715C18.5626 22.3014 16.1105 23.3086 13.5001 23.3086H13.4553C11.8654 23.3007 10.286 22.9052 8.89117 22.1616L8.66968 22.043H4.95718V18.3305L4.83853 18.109C4.09497 16.7142 3.69947 15.1348 3.69156 13.5448C3.68101 10.916 4.6856 8.44805 6.52867 6.58916C8.3691 4.73027 10.8292 3.70195 13.458 3.69141H13.5028C14.8211 3.69141 16.1 3.94717 17.3049 4.45342C18.4809 4.94648 19.5356 5.65576 20.4426 6.56279C21.347 7.46719 22.0589 8.52451 22.552 9.70049C23.0635 10.9187 23.3193 12.2106 23.314 13.5448C23.2982 16.171 22.2672 18.6311 20.411 20.4715Z" fill="white"/>
</svg>
